<svg xmlns="http://www.w3.org/2000/svg" xmlns:xlink="http://www.w3.org/1999/xlink" xmlns:inkscape="http://www.inkscape.org/namespaces/inkscape" version="1.1" width="2500" height="2500" viewBox="0 0 2500 2500">
<defs>
<clipPath id="clip_1">
<path transform="matrix(1,0,0,-1,0,2500)" d="M0 2500H2500V0H0Z"/>
</clipPath>
</defs>
<g inkscape:groupmode="layer" inkscape:label="Layer 1">
<path transform="matrix(1,0,0,-1,0,2500)" d="M0 0H2500V2500H0Z" fill="#c6a1cf"/>
<g clip-path="url(#clip_1)">
<path transform="matrix(1,0,0,-1,1383.887,1096.779)" d="M0 0C18.963-14.749 37.481-24.725 55.226-31.083 149.978-65.03 222.631 4.453 222.631 4.453 168.541 58.542 113.408 64.786 71.009 56.917 39.1 50.996 14.401 37.086 2.805 29.543 175.277 152.903 153.615 367.341 153.615 367.341 138.232 361.82 123.805 355.787 110.247 349.264-95.242 250.683-95.798 48.801-95.731 40.341V40.074C-95.731 40.163-95.754 40.252-95.754 40.341-97.49 54.233-98.425 67.702-98.67 80.748-103.88 354.295 198.142 445.262 198.142 445.262 222.453 160.161 51.495 61.557 49.001 60.133 158.09 109.067 296.099 4.453 296.099 4.453 80.147-131.352 0 0 0 0" fill="#ffffff"/>
<path transform="matrix(1,0,0,-1,1419.5079,1174.7)" d="M0 0C-48.979 0-89.052 20.037-135.805 44.526-182.557 69.016-233.763 48.979-233.763 48.979-86.826 120.221 0 0 0 0" fill="#ffffff"/>
<path transform="matrix(1,0,0,-1,1232.4978,1096.779)" d="M0 0C0 0-146.936 184.784 8.905 347.304 8.905 347.304-131.352 191.463 17.811 4.453 17.811 4.453 4.453 2.226 0 0" fill="#ffffff"/>
<path transform="matrix(1,0,0,-1,937.7684,1528.3992)" d="M0 0H1.073C24.181 0 39.766 17.196 39.766 44.066V323.501L-64.484 52.663-60.187 44.066C-48.9 17.734-33.318 0-23.108 0H-21.495V-5.91H-38.692C-71.471-5.91-103.176 13.972-116.073 44.066L-247.191 340.697V44.066C-247.191 17.196-208.502 0-185.931 0H-184.858V-5.91H-315.439V0H-314.365C-291.257 0-253.105 17.196-253.105 44.066V351.982C-264.926 372.939-281.583 385.836-296.631 385.836H-297.704V391.748H-269.226C-236.444 391.748-205.279 371.865-192.381 341.772L-67.711 60.724 44.603 354.131C55.35 377.239 82.218 391.748 112.85 391.748H128.971V385.836C105.326 385.836 90.815 358.429 90.815 317.052V44.066C90.815 17.196 105.863 0 129.508 0H130.581V-5.91H0Z" fill="#ffffff"/>
<path transform="matrix(1,0,0,-1,1137.6884,1108.1712)" d="M0 0C15.047 0 25.258-10.211 25.258-25.793 25.258-40.841 15.047-51.05 0-51.05-15.581-51.05-25.792-40.841-25.792-25.793-25.792-10.211-15.581 0 0 0M-58.573-141.867C-8.06-141.867 25.258-171.422 25.258-215.488V-353.056C25.258-393.358 38.692-420.228 58.577-420.228V-426.138C8.061-426.138-25.792-396.583-25.792-353.056V-215.488C-25.792-175.184-38.689-147.779-58.573-147.779Z" fill="#ffffff"/>
<path transform="matrix(1,0,0,-1,1220.4494,1250.0379)" d="M0 0C50.513 0 83.832-29.555 83.832-73.621V-89.205C94.039-30.093 118.76 5.374 153.689 5.374 184.858 5.374 195.068-23.108 209.576-23.108 214.949-23.108 224.087-18.271 224.087-2.15H229.997C229.997-42.453 212.263-63.947 195.605-63.947 172.497-63.947 160.676-20.421 134.881-20.421 109.623-20.421 83.832-65.56 83.832-161.213V-234.295C83.832-261.165 99.413-278.361 122.521-278.361H123.597V-284.272H-6.987V-278.361H-5.91C17.195-278.361 32.779-261.165 32.779-234.295V-73.621C32.779-33.317 19.881-5.912 0-5.912Z" fill="#ffffff"/>
<path transform="matrix(1,0,0,-1,1470.8704,1250.0379)" d="M0 0C41.916 0 72.008-19.883 81.145-52.125 90.279-16.659 122.521 5.374 167.66 5.374 220.323 5.374 254.178-26.332 254.178-73.621V-211.189C254.178-251.491 267.613-278.361 287.497-278.361V-284.272C236.981-284.272 203.129-254.717 203.129-211.189V-73.621C203.129-33.317 181.634-5.912 146.165-5.912 109.087-5.912 83.832-37.617 83.832-74.158V-234.295C83.832-261.165 99.413-278.361 122.521-278.361H123.597V-284.272H-6.987V-278.361H-5.91C17.195-278.361 32.779-261.165 32.779-234.295V-73.621C32.779-33.317 19.881-5.912 0-5.912Z" fill="#ffffff"/>
<path transform="matrix(1,0,0,-1,1760.5203,1250.0379)" d="M0 0C50.513 0 83.832-29.555 83.832-73.621V-211.189C83.832-251.491 97.266-278.361 117.15-278.361V-284.272C66.634-284.272 32.782-254.717 32.782-211.189V-73.621C32.782-33.317 19.884-5.912 0-5.912Z" fill="#ffffff"/>
<path transform="matrix(1,0,0,-1,1819.0938,1108.1712)" d="M0 0C15.047 0 25.258-10.211 25.258-25.793 25.258-40.841 15.047-51.05 0-51.05-15.581-51.05-25.792-40.841-25.792-25.793-25.792-10.211-15.581 0 0 0" fill="#ffffff"/>
<path transform="matrix(1,0,0,-1,1285.0216,369.07325)" d="M0 0C-486.522 0-880.927-387.168-880.927-864.763-880.927-1342.358-486.522-1729.526 0-1729.526 486.522-1729.526 880.927-1342.358 880.927-864.763 880.927-387.168 486.522 0 0 0M837.823-880.927C837.823-1358.522 450.656-1745.69-26.94-1745.69-504.535-1745.69-891.703-1358.522-891.703-880.927-891.703-403.331-504.535-16.164-26.94-16.164 450.656-16.164 837.823-403.331 837.823-880.927" fill="#ffffff"/>
<path transform="matrix(1,0,0,-1,1250,334.05177)" d="M0 0C-505.864 0-915.948-410.084-915.948-915.948-915.948-1421.813-505.864-1831.896 0-1831.896 505.864-1831.896 915.948-1421.813 915.948-915.948 915.948-410.084 505.864 0 0 0M915.948-915.948C915.948-1411.398 514.307-1813.039 18.858-1813.039-476.592-1813.039-878.233-1411.398-878.233-915.948-878.233-420.499-476.592-18.858 18.858-18.858 514.307-18.858 915.948-420.499 915.948-915.948" fill="#ffffff"/>
<path transform="matrix(1,0,0,-1,682.8433,1588.9966)" d="M0 0C6.262-4.806 10.486-11.323 12.671-19.552H-.545C-2.367-14.893-5.262-11.196-9.229-8.465-13.2-5.735-18.061-4.369-23.813-4.369-28.399-4.369-32.497-5.499-36.101-7.755-39.706-10.013-42.544-13.236-44.62-17.422-46.696-21.61-47.734-26.506-47.734-32.113-47.734-37.648-46.696-42.51-44.62-46.696-42.544-50.884-39.706-54.107-36.101-56.362-32.497-58.621-28.399-59.749-23.813-59.749-18.061-59.749-13.2-58.383-9.229-55.654-5.262-52.922-2.367-49.263-.545-44.675H12.671C10.486-52.906 6.262-59.405 0-64.173-6.264-68.944-14.129-71.328-23.594-71.328-30.877-71.328-37.32-69.672-42.928-66.357-48.536-63.044-52.868-58.421-55.925-52.485-58.985-46.551-60.514-39.76-60.514-32.113-60.514-24.467-58.985-17.677-55.925-11.742-52.868-5.807-48.536-1.165-42.928 2.185-37.32 5.534-30.877 7.209-23.594 7.209-14.129 7.209-6.264 4.807 0 0" fill="#ffffff"/>
<path transform="matrix(1,0,0,-1,785.0826,1596.5337)" d="M0 0C-3.86-2.257-6.865-5.498-9.012-9.72-11.16-13.944-12.234-18.86-12.234-24.467-12.234-30.075-11.16-34.991-9.012-39.213-6.865-43.437-3.86-46.678 0-48.935 3.858-51.192 8.264-52.321 13.218-52.321 18.094-52.321 22.447-51.192 26.271-48.935 30.093-46.678 33.078-43.437 35.226-39.213 37.375-34.991 38.449-30.075 38.449-24.467 38.449-18.86 37.375-13.944 35.226-9.72 33.078-5.498 30.093-2.257 26.271 0 22.447 2.257 18.094 3.387 13.218 3.387 8.264 3.387 3.858 2.257 0 0M32.605 9.941C38.395 6.59 42.945 1.913 46.26-4.096 49.573-10.102 51.23-16.895 51.23-24.467 51.23-32.042 49.573-38.831 46.26-44.838 42.945-50.846 38.395-55.543 32.605-58.929 26.816-62.316 20.353-64.008 13.218-64.008 6.008-64.008-.491-62.316-6.28-58.929-12.069-55.543-16.641-50.846-19.989-44.838-23.34-38.831-25.014-32.042-25.014-24.467-25.014-16.895-23.34-10.102-19.989-4.096-16.641 1.913-12.069 6.59-6.28 9.941-.491 13.289 6.008 14.966 13.218 14.966 20.353 14.966 26.816 13.289 32.605 9.941" fill="#ffffff"/>
<path transform="matrix(1,0,0,-1,915.9402,1649.9465)" d="M0 0H26.653V-9.722H-12.452V67.395H0Z" fill="#ffffff"/>
<path transform="matrix(1,0,0,-1,1019.3806,1649.9465)" d="M0 0H26.653V-9.722H-12.452V67.395H0Z" fill="#ffffff"/>
<path transform="matrix(1,0,0,-1,1122.8209,1592.6011)" d="M0 0V-23.374H28.401V-32.987H0V-56.909H31.678V-67.067H-12.452V10.05H31.678V0Z" fill="#ffffff"/>
<path transform="matrix(1,0,0,-1,1279.2393,1588.9966)" d="M0 0C6.262-4.806 10.486-11.323 12.671-19.552H-.545C-2.367-14.893-5.262-11.196-9.229-8.465-13.2-5.735-18.061-4.369-23.813-4.369-28.399-4.369-32.497-5.499-36.101-7.755-39.706-10.013-42.545-13.236-44.62-17.422-46.696-21.61-47.734-26.506-47.734-32.113-47.734-37.648-46.696-42.51-44.62-46.696-42.545-50.884-39.706-54.107-36.101-56.362-32.497-58.621-28.399-59.749-23.813-59.749-18.061-59.749-13.2-58.383-9.229-55.654-5.262-52.922-2.367-49.263-.545-44.675H12.671C10.486-52.906 6.262-59.405 0-64.173-6.264-68.944-14.129-71.328-23.594-71.328-30.877-71.328-37.32-69.672-42.928-66.357-48.536-63.044-52.868-58.421-55.925-52.485-58.985-46.551-60.514-39.76-60.514-32.113-60.514-24.467-58.985-17.677-55.925-11.742-52.868-5.807-48.536-1.165-42.928 2.185-37.32 5.534-30.877 7.209-23.594 7.209-14.129 7.209-6.264 4.807 0 0" fill="#ffffff"/>
<path transform="matrix(1,0,0,-1,1408.568,1582.5515)" d="M0 0V-10.05H-21.519V-77.117H-34.08V-10.05H-55.489V0Z" fill="#ffffff"/>
<path transform="matrix(1,0,0,-1,0,2500)" d="M1484.917 840.332H1472.465V917.449H1484.917Z" fill="#ffffff"/>
<path transform="matrix(1,0,0,-1,1577.1085,1596.5337)" d="M0 0C-3.86-2.257-6.865-5.498-9.012-9.72-11.16-13.944-12.234-18.86-12.234-24.467-12.234-30.075-11.16-34.991-9.012-39.213-6.865-43.437-3.86-46.678 0-48.935 3.858-51.192 8.264-52.321 13.218-52.321 18.094-52.321 22.447-51.192 26.271-48.935 30.093-46.678 33.078-43.437 35.226-39.213 37.375-34.991 38.449-30.075 38.449-24.467 38.449-18.86 37.375-13.944 35.226-9.72 33.078-5.498 30.093-2.257 26.271 0 22.447 2.257 18.094 3.387 13.218 3.387 8.264 3.387 3.858 2.257 0 0M32.605 9.941C38.395 6.59 42.945 1.913 46.26-4.096 49.573-10.102 51.23-16.895 51.23-24.467 51.23-32.042 49.573-38.831 46.26-44.838 42.945-50.846 38.395-55.543 32.605-58.929 26.816-62.316 20.353-64.008 13.218-64.008 6.008-64.008-.491-62.316-6.28-58.929-12.069-55.543-16.641-50.846-19.989-44.838-23.34-38.831-25.014-32.042-25.014-24.467-25.014-16.895-23.34-10.102-19.989-4.096-16.641 1.913-12.069 6.59-6.28 9.941-.491 13.289 6.008 14.966 13.218 14.966 20.353 14.966 26.816 13.289 32.605 9.941" fill="#ffffff"/>
<path transform="matrix(1,0,0,-1,1757.8848,1659.6685)" d="M0 0H-12.452L-49.919 56.909V0H-62.37V77.008H-49.919L-12.452 19.88V77.008H0Z" fill="#ffffff"/>
<path transform="matrix(1,0,0,-1,1875.5264,1649.6731)" d="M0 0C-1.82-3.242-4.587-5.845-8.302-7.811-12.015-9.776-16.567-10.76-21.954-10.76-27.198-10.76-31.895-9.832-36.045-7.974-40.197-6.117-43.512-3.514-45.986-.165-48.462 3.185-49.882 7.045-50.246 11.414H-36.92C-36.556 8.064-35.118 5.188-32.605 2.784-30.093 .382-26.725-.82-22.501-.82-18.715-.82-15.783 .199-13.709 2.239-11.633 4.277-10.595 6.898-10.595 10.104-10.595 12.87-11.359 15.145-12.888 16.93-14.419 18.714-16.312 20.116-18.569 21.135-20.827 22.154-23.921 23.32-27.854 24.631-32.66 26.16-36.574 27.689-39.595 29.218-42.619 30.749-45.185 32.968-47.296 35.882-49.41 38.793-50.464 42.617-50.464 47.35-50.464 51.502-49.446 55.143-47.406 58.275-45.368 61.405-42.454 63.827-38.668 65.538-34.882 67.248-30.513 68.105-25.559 68.105-17.696 68.105-11.452 66.211-6.827 62.425-2.203 58.637 .438 53.686 1.092 47.569H-12.343C-12.854 50.48-14.218 52.976-16.438 55.052-18.661 57.126-21.701 58.164-25.559 58.164-29.055 58.164-31.859 57.273-33.971 55.489-36.083 53.703-37.137 51.136-37.137 47.788-37.137 45.166-36.411 42.999-34.953 41.289-33.498 39.577-31.66 38.23-29.437 37.248-27.216 36.264-24.177 35.118-20.317 33.806-15.438 32.277-11.452 30.729-8.356 29.164-5.262 27.597-2.639 25.322-.491 22.336 1.656 19.35 2.732 15.419 2.732 10.541 2.732 6.753 1.821 3.239 0 0" fill="#ffffff"/>
</g>
</g>
</svg>
